# xmcd
#
# Track frame offsets: 
#        150
#        7806
#        18185
#        30163
#        50257
#        57696
#        77916
#        89805
#        105543
#        116844
#        122914
#        140782
#        157396
#
# Disc length: 2465 seconds
#
# Revision: 0
# Processed by: cddbd v1.5.2PL0 Copyright (c) Steve Scherf et al.
# Submitted via: ExactAudioCopy v0.95b3
#
DISCID=b0099f0d
DTITLE=Richard Smerin - One Off-Chance
DYEAR=1998
DGENRE=Blues
TTITLE0=I Gotta Move
TTITLE1=Hold On/Let Go
TTITLE2=Copenhagen
TTITLE3=It's Uncertain
TTITLE4=Mid-Life Crisis Blues
TTITLE5=One Off-Chance
TTITLE6=Blind Drunk In Innocence
TTITLE7=South London Jelly
TTITLE8=If I Live To Be There
TTITLE9=Hannah
TTITLE10=All The Rest
TTITLE11=Rupert
TTITLE12=I'll See You Again/Stealin'
EXTD=
EXTT0=
EXTT1=
EXTT2=
EXTT3=
EXTT4=
EXTT5=
EXTT6=
EXTT7=
EXTT8=
EXTT9=
EXTT10=
EXTT11=
EXTT12=
PLAYORDER=
